<svg width="20" height="16" viewBox="0 0 20 16" fill="none" xmlns="http://www.w3.org/2000/svg">
<path fill-rule="evenodd" clip-rule="evenodd" d="M3 2H17C17.3862 2 17.7213 2.21897 17.8879 2.53954L10.5547 7.42834C10.2188 7.65227 9.78121 7.65227 9.44531 7.42834L2.11209 2.53953C2.27868 2.21896 2.61377 2 3 2ZM2 4.8685V13C2 13.5523 2.44772 14 3 14H17C17.5523 14 18 13.5523 18 13V4.86852L11.6641 9.09244C10.6564 9.76424 9.34361 9.76424 8.33591 9.09244L2 4.8685ZM0 3C0 1.34315 1.34315 0 3 0H17C18.6569 0 20 1.34315 20 3V13C20 14.6569 18.6569 16 17 16H3C1.34315 16 0 14.6569 0 13V3Z" fill="#6F767E"/>
</svg>
