<svg width="22" height="22" viewBox="0 0 22 22" fill="none" xmlns="http://www.w3.org/2000/svg">
<g clip-path="url(#clip0_1_308)">
<path d="M11 0C6.15995 0 2.19995 3.96 2.19995 8.8C2.19995 13.42 9.45995 20.46 10.23 21.23L11 22L11.77 21.23C12.54 20.46 19.8 13.42 19.8 8.8C19.8 3.96 15.84 0 11 0ZM11 18.92C8.57995 16.5 4.39995 11.55 4.39995 8.8C4.39995 5.17 7.36995 2.2 11 2.2C14.63 2.2 17.6 5.17 17.6 8.8C17.6 11.55 13.42 16.5 11 18.92Z" fill="#6F767E"/>
<path d="M10.9999 4.39999C8.57985 4.39999 6.59985 6.38 6.59985 8.8C6.59985 11.22 8.57985 13.2 10.9999 13.2C13.4198 13.2 15.3998 11.22 15.3998 8.8C15.3998 6.38 13.4198 4.39999 10.9999 4.39999ZM10.9999 11C9.78985 11 8.79985 10.01 8.79985 8.8C8.79985 7.59 9.78985 6.6 10.9999 6.6C12.2098 6.6 13.1998 7.59 13.1998 8.8C13.1998 10.01 12.2098 11 10.9999 11Z" fill="#6F767E"/>
</g>
<defs>
<clipPath id="clip0_1_308">
<rect width="22" height="22" fill="white"/>
</clipPath>
</defs>
</svg>
