<svg width="23" height="23" viewBox="0 0 23 23" fill="none" xmlns="http://www.w3.org/2000/svg">
<g clip-path="url(#clip0_1_322)">
<path d="M13.7461 13.0691C12.3643 13.0691 11.0508 12.4142 10.0468 11.2273C9.13081 10.1425 8.60522 8.74449 8.60522 7.39234C8.60522 4.55418 10.9115 2.24609 13.7461 2.24609C16.5807 2.24609 18.8869 4.55418 18.8869 7.39055C18.8869 8.7427 18.3614 10.1407 17.4454 11.2255C16.4414 12.4142 15.1279 13.0691 13.7461 13.0691ZM13.7461 4.49219C12.9782 4.49361 12.2422 4.79955 11.6995 5.34289C11.1568 5.88623 10.8518 6.62262 10.8513 7.39055C10.8513 8.94529 12.1424 10.823 13.7461 10.823C15.3498 10.823 16.6409 8.94529 16.6409 7.39055C16.6404 6.62262 16.3354 5.88623 15.7927 5.34289C15.25 4.79955 14.514 4.49361 13.7461 4.49219V4.49219Z" fill="#6F767E"/>
<path d="M21.877 23C21.5791 23 21.2935 22.8817 21.0828 22.6711C20.8722 22.4605 20.7539 22.1748 20.7539 21.877V19.6915C20.7539 17.8946 19.6825 16.8246 17.8879 16.8246H9.6043C7.80742 16.8246 6.73828 17.8964 6.73828 19.6915V21.877C6.73828 22.1748 6.61996 22.4605 6.40935 22.6711C6.19874 22.8817 5.91308 23 5.61523 23C5.31738 23 5.03173 22.8817 4.82112 22.6711C4.61051 22.4605 4.49219 22.1748 4.49219 21.877V19.6915C4.49219 18.2091 4.98633 16.9315 5.91441 16.0012C6.8425 15.0708 8.12098 14.5785 9.6043 14.5785H17.8879C19.3703 14.5785 20.6474 15.0726 21.5778 16.0012C22.5081 16.9297 23 18.2077 23 19.6915V21.877C23 22.1748 22.8817 22.4605 22.6711 22.6711C22.4605 22.8817 22.1748 23 21.877 23Z" fill="#6F767E"/>
<path d="M6.42383 12.1738H1.12305C0.825196 12.1738 0.539545 12.0555 0.328933 11.8449C0.118321 11.6343 0 11.3486 0 11.0508C0 10.7529 0.118321 10.4673 0.328933 10.2567C0.539545 10.0461 0.825196 9.92773 1.12305 9.92773H6.42383C6.72168 9.92773 7.00733 10.0461 7.21794 10.2567C7.42855 10.4673 7.54687 10.7529 7.54688 11.0508C7.54687 11.3486 7.42855 11.6343 7.21794 11.8449C7.00733 12.0555 6.72168 12.1738 6.42383 12.1738Z" fill="#6F767E"/>
<path d="M3.77344 14.8018C3.47559 14.8018 3.18994 14.6834 2.97932 14.4728C2.76871 14.2622 2.65039 13.9766 2.65039 13.6787V8.42285C2.65039 8.125 2.76871 7.83935 2.97932 7.62874C3.18994 7.41813 3.47559 7.2998 3.77344 7.2998C4.07129 7.2998 4.35694 7.41813 4.56755 7.62874C4.77816 7.83935 4.89648 8.125 4.89648 8.42285V13.6787C4.89648 13.8262 4.86744 13.9722 4.811 14.1085C4.75456 14.2447 4.67184 14.3685 4.56755 14.4728C4.46327 14.5771 4.33946 14.6598 4.20321 14.7163C4.06695 14.7727 3.92092 14.8018 3.77344 14.8018Z" fill="#6F767E"/>
</g>
<defs>
<clipPath id="clip0_1_322">
<rect width="23" height="23" fill="white"/>
</clipPath>
</defs>
</svg>
