<svg width="20" height="20" viewBox="0 0 20 20" fill="none" xmlns="http://www.w3.org/2000/svg">
<g clip-path="url(#clip0_1_314)">
<path d="M18.9532 13.6497L16.9411 12.0012C15.6302 10.9273 13.5953 11.0289 12.3994 12.2248L12.3195 12.3047C12.119 12.5052 11.7924 12.5036 11.5947 12.3058L7.707 8.41819C7.51073 8.22193 7.50685 7.90626 7.69598 7.70583C7.69943 7.70219 7.70292 7.69859 7.70647 7.695L7.69578 7.70568C7.69933 7.70214 7.70288 7.69854 7.70642 7.695C8.89569 6.49432 9.00949 4.45004 7.96771 3.13293L6.33574 1.06972C5.28677 -0.256495 3.46366 -0.358939 2.26792 0.836801L1.96816 1.13656C-0.15571 3.26043 -0.656191 7.08843 0.936915 9.63358C0.936915 9.63358 1.87472 11.8085 5.03957 14.9733C8.20441 18.1382 10.3793 19.076 10.3793 19.076C12.9482 20.6303 16.7512 20.1699 18.8746 18.0465L19.16 17.761C20.3567 16.5644 20.2632 14.723 18.9532 13.6497ZM17.7144 16.3154L17.4289 16.6009C15.9711 18.0587 13.2017 18.3942 11.4376 17.3268L11.3176 17.2542L11.1888 17.1986C11.0306 17.1304 10.6343 16.9155 10.035 16.5136C8.97078 15.7998 7.77566 14.8183 6.48514 13.5278C5.19462 12.2372 4.21307 11.0421 3.49926 9.97785C3.09735 9.37862 2.8824 8.98226 2.81426 8.82414L2.75254 8.68101L2.66984 8.54891C1.59724 6.83534 1.94305 4.05296 3.41378 2.58223L3.71354 2.28247C4.04594 1.95008 4.44335 1.9727 4.73238 2.3381L6.36435 4.40131C6.76674 4.91003 6.71466 5.79571 6.25026 6.26016C5.26233 7.25964 5.26722 8.86975 6.26142 9.86391L10.1491 13.7516C11.1457 14.7482 12.7668 14.7487 13.7652 13.7504L13.8451 13.6705C14.2984 13.2172 15.148 13.1752 15.6455 13.5828L17.6576 15.2313C18.0333 15.539 18.0553 15.9745 17.7144 16.3154Z" fill="#6F767E"/>
</g>
<defs>
<clipPath id="clip0_1_314">
<rect width="20" height="20" fill="white"/>
</clipPath>
</defs>
</svg>
