<svg width="52" height="52" viewBox="0 0 52 52" fill="none" xmlns="http://www.w3.org/2000/svg">
<path d="M52 26C52 40.3594 40.3594 52 26 52C11.6406 52 1.19529e-05 40.3594 1.25806e-05 26C0.0162638 11.6474 11.6474 0.0162603 26 1.03076e-05C40.3594 1.09353e-05 52 11.6406 52 26ZM1.73335 26C1.73335 39.4021 12.5979 50.2667 26 50.2667C39.4021 50.2667 50.2667 39.4021 50.2667 26C50.2514 12.6043 39.3957 1.74862 26 1.73334C12.5979 1.73334 1.73335 12.5979 1.73335 26Z" fill="white"/>
<path d="M33.521 11.9044L19.4255 25.9999L33.5209 40.0954C33.8453 40.4312 33.8453 40.9637 33.5209 41.2995C33.1885 41.6438 32.6398 41.6533 32.2955 41.3208L17.5873 26.6126C17.4248 26.4501 17.3334 26.2298 17.3334 25.9999C17.3334 25.77 17.4248 25.5497 17.5873 25.3872L32.2955 10.679C32.3024 10.6717 32.3096 10.6647 32.3167 10.6577C32.661 10.3253 33.2096 10.3347 33.5422 10.679C33.8748 11.0233 33.8652 11.5719 33.521 11.9044Z" fill="white"/>
</svg>
