<svg width="52" height="52" viewBox="0 0 52 52" fill="none" xmlns="http://www.w3.org/2000/svg">
<path d="M-1.1365e-06 26C-5.08828e-07 40.3594 11.6406 52 26 52C40.3594 52 52 40.3594 52 26C51.9837 11.6474 40.3526 0.0162597 26 1.03076e-05C11.6406 1.09353e-05 -1.76416e-06 11.6406 -1.1365e-06 26ZM50.2667 26C50.2667 39.4021 39.4021 50.2667 26 50.2667C12.5979 50.2667 1.73333 39.4021 1.73333 26C1.74861 12.6043 12.6043 1.74862 26 1.73334C39.4021 1.73334 50.2667 12.5979 50.2667 26Z" fill="white"/>
<path d="M18.479 11.9044L32.5745 25.9999L18.4791 40.0954C18.1547 40.4312 18.1547 40.9637 18.4791 41.2995C18.8115 41.6438 19.3602 41.6533 19.7045 41.3208L34.4127 26.6126C34.5752 26.4501 34.6666 26.2298 34.6666 25.9999C34.6666 25.77 34.5752 25.5497 34.4127 25.3872L19.7045 10.679C19.6976 10.6717 19.6904 10.6647 19.6833 10.6577C19.339 10.3253 18.7904 10.3347 18.4578 10.679C18.1252 11.0233 18.1348 11.5719 18.479 11.9044Z" fill="white"/>
</svg>
